:SAMPLES-PER-SECOND 30
:FULLY-SPECIFIED
:DEGREES
280
root  -1.58128 40.9868 0.120823 -5.52504 -86.6676 7.5312
RightUpLeg  0.47047 -1.94747 -2.06448
RightLeg  -2.47153 -22.1828 1.71007
RightFoot  0.849566 -0.310017 2.9565
RightToes  -3.11842e-008 1.75238e-005 3.56266e-009
Spine  -0.815955 0.953857 0.910255
Spine1  6.81147 0.918637 0.186075
HEad  -17.8665 3.37725 -6.41081
LeftShoulder1  3.23152 -7.70074 -22.5492
LeftArm  -38.6779 -37.0097 -46.9176
LeftForeArm  138.281 -63.4853 -157.059
LeftHand  -0.19223 -2.15827 3.07278
RightShoulder  3.2195 8.07502 21.515
RightArm  -27.7922 44.1577 36.312
RightForeArm  109.799 65.2995 152.497
RightHand  -0.0673873 7.75474 -0.967816
LeftUpLeg  -1.21323 0.427116 2.12627
LeftLeg  -3.38381 12.018 -1.29147
LeftFoot  3.21878 0.278223 -2.33066
LeftToes  4.7713e-008 1.46693e-008 1.32589e-009
281
root  -1.84106 40.9828 -0.0361772 -6.16089 -84.9174 8.04817
RightUpLeg  1.22668 -2.21379 -2.08092
RightLeg  -2.45094 -23.5359 1.81861
RightFoot  0.240316 -0.281885 2.79348
RightToes  -3.11842e-008 1.75238e-005 3.56266e-009
Spine  -1.24895 1.95872 3.24508
Spine1  5.46021 2.53413 -2.80314
HEad  -18.1157 2.76467 -8.85467
LeftShoulder1  2.90339 -6.95691 -21.3957
LeftArm  -42.4759 -41.4269 -46.7904
LeftForeArm  138.807 -64.4538 -156.173
LeftHand  -0.35809 -2.70579 5.37473
RightShoulder  3.03599 8.00485 19.9984
RightArm  -31.0254 49.5013 36.5721
RightForeArm  107.316 67.6968 149.04
RightHand  -0.0754406 8.1602 -1.02289
LeftUpLeg  -0.858979 0.336152 2.07462
LeftLeg  -3.45044 10.421 -1.14864
LeftFoot  3.03783 0.326917 -2.73755
LeftToes  4.7713e-008 1.46693e-008 1.32589e-009
282
root  -2.09215 40.9719 -0.159154 -6.18497 -83.4362 8.38387
RightUpLeg  1.39418 -2.25432 -2.02897
RightLeg  -2.32296 -24.8682 1.74561
RightFoot  -0.241225 -0.24851 2.53991
RightToes  -3.11842e-008 1.75238e-005 3.56266e-009
Spine  -0.970418 3.20036 6.05345
Spine1  3.01008 4.43858 -6.71569
HEad  -18.8316 2.87211 -10.2482
LeftShoulder1  2.63895 -6.39308 -20.2399
LeftArm  -45.6187 -45.0967 -46.7948
LeftForeArm  138.173 -65.2322 -155.299
LeftHand  -0.439953 -2.47647 6.70978
RightShoulder  2.93299 8.10678 18.7746
RightArm  -34.7195 52.8667 35.711
RightForeArm  103.904 69.7405 145.253
RightHand  -0.175044 8.07323 -1.88252
LeftUpLeg  -0.994357 0.196027 2.00038
LeftLeg  -3.44232 9.13818 -1.04285
LeftFoot  2.83645 0.345879 -2.92005
LeftToes  4.7713e-008 1.46693e-008 1.32589e-009
283
root  -2.33497 40.9658 -0.262492 -6.02347 -82.3982 8.54768
RightUpLeg  1.53559 -2.31095 -1.97772
RightLeg  -2.30381 -25.748 1.77515
RightFoot  -0.64362 -0.233174 2.44226
RightToes  -3.11842e-008 1.75238e-005 3.56266e-009
Spine  -0.594871 4.64703 8.67645
Spine1  0.922566 6.38093 -10.4513
HEad  -18.9796 1.95979 -11.1518
LeftShoulder1  2.53876 -6.06256 -20.0993
LeftArm  -48.1831 -47.8379 -45.9216
LeftForeArm  136.951 -66.0046 -154.319
LeftHand  -0.425852 -1.77586 7.07945
RightShoulder  2.64052 7.62553 17.1201
RightArm  -38.1639 55.3461 35.1855
RightForeArm  99.7779 71.518 141.106
RightHand  -0.171859 8.19 -1.84358
LeftUpLeg  -1.06125 0.0963994 1.99186
LeftLeg  -3.53455 8.25194 -0.961237
LeftFoot  2.67714 0.384473 -3.25932
LeftToes  4.7713e-008 1.46693e-008 1.32589e-009
284
root  -2.52299 40.9559 -0.34716 -5.3298 -81.4269 8.31837
RightUpLeg  1.46033 -2.41243 -1.94299
RightLeg  -2.36278 -26.537 1.95372
RightFoot  -0.953382 -0.223392 2.38573
RightToes  -3.11842e-008 1.75238e-005 3.56266e-009
Spine  -0.291153 5.97182 11.4183
Spine1  -0.525743 8.20724 -14.571
HEad  -19.3499 2.16989 -11.8384
LeftShoulder1  2.44726 -5.67938 -20.2166
LeftArm  -49.6818 -49.6309 -44.8966
LeftForeArm  135.453 -66.5553 -153.51
LeftHand  -0.353598 -0.777566 6.78727
RightShoulder  2.47005 7.33504 16.1027
RightArm  -41.8721 56.7743 33.582
RightForeArm  96.6709 72.5706 138.082
RightHand  -0.15881 8.02007 -1.74631
LeftUpLeg  -1.46213 -0.142488 1.95182
LeftLeg  -3.42389 7.54386 -0.720317
LeftFoot  2.5144 0.406037 -3.46727
LeftToes  4.7713e-008 1.46693e-008 1.32589e-009
